<?xml version="1.0" encoding="utf-8"?>
<!-- Generator: Adobe Illustrator 19.0.0, SVG Export Plug-In . SVG Version: 6.00 Build 0)  -->
<!DOCTYPE svg PUBLIC "-//W3C//DTD SVG 1.1//EN" "http://www.w3.org/Graphics/SVG/1.1/DTD/svg11.dtd">
<svg version="1.1" id="Layer_1" xmlns="http://www.w3.org/2000/svg" xmlns:xlink="http://www.w3.org/1999/xlink" x="0px" y="0px"
	 width="32px" height="32px" viewBox="0 0 32 32" style="enable-background:new 0 0 32 32;" xml:space="preserve">
<style type="text/css">
	.st0{fill:#DDDDDD;}
</style>
<path class="st0" d="M0,0v32h32V0H0z M30.5,21.5L24,15l-6,6L7,10l-5.5,5.5v-14h29V21.5z M1.5,17.5L7,12l18.5,18.5h-24V17.5z M19,22
	l5-5l6.5,6.5v7h-3L19,22z"/>
<path class="st0" d="M20,14c2.8,0,5-2.2,5-5s-2.2-5-5-5s-5,2.2-5,5S17.2,14,20,14z M20,5.5c1.9,0,3.5,1.6,3.5,3.5s-1.6,3.5-3.5,3.5
	s-3.5-1.6-3.5-3.5S18.1,5.5,20,5.5z"/>
</svg>
